<?xml version="1.0" encoding="UTF-8"?>
<svg xmlns="http://www.w3.org/2000/svg" xmlns:xlink="http://www.w3.org/1999/xlink" width="248.0" height="314.0" viewBox="236.0 45.5 248.0 314.0">
<defs>
<filter id="filter-remove-color" x="0%" y="0%" width="100%" height="100%">
<feColorMatrix color-interpolation-filters="sRGB" values="0 0 0 0 1 0 0 0 0 1 0 0 0 0 1 0 0 0 1 0" />
</filter>
<filter id="filter-remove-color-and-invert-alpha" x="0%" y="0%" width="100%" height="100%">
<feColorMatrix color-interpolation-filters="sRGB" values="0 0 0 0 1 0 0 0 0 1 0 0 0 0 1 0 0 0 -1 1"/>
</filter>
<filter id="filter-0" x="0%" y="0%" width="100%" height="100%">
<feImage xlink:href="#compositing-group-1" result="source" x="0" y="0" width="1036.8" height="583.220409"/>
<feImage xlink:href="#compositing-group-2" result="destination" x="0" y="0" width="1036.8" height="583.220409"/>
<feComposite in="source" in2="destination" operator="arithmetic" k1="0" k2="1" k3="1" k4="0" color-interpolation-filters="sRGB"/>
</filter>
<filter id="filter-1" x="0%" y="0%" width="100%" height="100%">
<feImage xlink:href="#compositing-group-4" result="source" x="0" y="0" width="1036.8" height="583.220409"/>
<feImage xlink:href="#compositing-group-5" result="destination" x="0" y="0" width="1036.8" height="583.220409"/>
<feComposite in="source" in2="destination" operator="arithmetic" k1="0" k2="1" k3="1" k4="0" color-interpolation-filters="sRGB"/>
</filter>
<filter id="filter-2" x="0%" y="0%" width="100%" height="100%">
<feImage xlink:href="#compositing-group-7" result="source" x="0" y="0" width="1036.8" height="583.220409"/>
<feImage xlink:href="#compositing-group-8" result="destination" x="0" y="0" width="1036.8" height="583.220409"/>
<feComposite in="source" in2="destination" operator="arithmetic" k1="0" k2="1" k3="1" k4="0" color-interpolation-filters="sRGB"/>
</filter>
<clipPath id="clip-0">
<path clip-rule="nonzero" d="M 0.875 0 L 719.097656 0 L 719.097656 404.003906 L 0.875 404.003906 Z M 0.875 0 "/>
</clipPath>
<mask id="mask-0">
<g filter="url(#filter-remove-color)">
<rect x="-72" y="-40.501417" width="864" height="486.017008" fill="rgb(0%, 0%, 0%)" fill-opacity="0.47"/>
</g>
</mask>
<g id="compositing-group-0" transform="translate(598.4, 194.103118)">
<rect x="-598.4" y="-194.103118" width="1036.8" height="583.220409" fill="rgb(0%, 0%, 0%)" fill-opacity="0"/>
<clipPath id="clip-1">
<path clip-rule="nonzero" d="M 0.476562 0.898438 L 10.601562 0.898438 L 10.601562 155.804688 L 0.476562 155.804688 Z M 0.476562 0.898438 "/>
</clipPath>
<g clip-path="url(#clip-1)">
<path fill-rule="evenodd" fill="rgb(100%, 100%, 100%)" fill-opacity="1" d="M 0.476562 0.898438 L 0.476562 153.203125 C 0.789062 153.65625 1.296875 154.164062 2.003906 154.53125 C 3.363281 155.351562 5.117188 155.777344 6.898438 155.777344 C 8.167969 155.777344 9.441406 155.550781 10.574219 155.097656 L 10.574219 2.171875 C 9.414062 2.484375 8.167969 2.652344 6.953125 2.652344 C 4.71875 2.652344 2.515625 2.144531 0.847656 1.15625 C 0.734375 1.070312 0.589844 0.957031 0.476562 0.898438 Z M 0.476562 0.898438 "/>
</g>
</g>
<mask id="mask-1">
<use xlink:href="#compositing-group-0"/>
</mask>
<mask id="mask-2">
<use xlink:href="#compositing-group-0" filter="url(#filter-remove-color-and-invert-alpha)"/>
</mask>
<g id="compositing-group-1" mask="url(#mask-1)">
<g transform="translate(598.4, 194.103118)">
<rect x="-598.4" y="-194.103118" width="1036.8" height="583.220409" fill="rgb(19.999695%, 19.607544%, 19.999695%)" fill-opacity="1"/>
</g>
</g>
<g id="compositing-group-2" mask="url(#mask-2)">
<g transform="translate(598.4, 194.103118)">
</g>
</g>
<clipPath id="clip-2">
<rect x="0" y="0" width="11" height="156"/>
</clipPath>
<g id="source-6" clip-path="url(#clip-2)">
<g filter="url(#filter-0)" transform="translate(-598.4, -194.103118)">
<rect x="0" y="0" width="1036.8" height="583.220409" fill="rgb(0%, 0%, 0%)" fill-opacity="1"/>
</g>
</g>
<mask id="mask-3">
<g filter="url(#filter-remove-color)">
<rect x="-72" y="-40.501417" width="864" height="486.017008" fill="rgb(0%, 0%, 0%)" fill-opacity="0.21"/>
</g>
</mask>
<g id="compositing-group-3" transform="translate(488.4, 238.103118)">
<rect x="-488.4" y="-238.103118" width="1036.8" height="583.220409" fill="rgb(0%, 0%, 0%)" fill-opacity="0"/>
<clipPath id="clip-3">
<path clip-rule="nonzero" d="M 0.535156 0.898438 L 14.25 0.898438 L 14.25 172.800781 L 0.535156 172.800781 Z M 0.535156 0.898438 "/>
</clipPath>
<g clip-path="url(#clip-3)">
<path fill-rule="evenodd" fill="rgb(100%, 100%, 100%)" fill-opacity="1" d="M 13.570312 0.898438 C 13.371094 1.011719 13.230469 1.097656 13.117188 1.210938 C 10.914062 2.511719 8.027344 3.160156 5.144531 3.160156 C 3.558594 3.160156 1.976562 2.964844 0.535156 2.566406 L 1.15625 171.949219 C 2.570312 172.515625 4.238281 172.769531 5.878906 172.769531 C 8.171875 172.769531 10.460938 172.261719 12.214844 171.246094 C 13.117188 170.734375 13.769531 170.085938 14.222656 169.433594 Z M 13.570312 0.898438 "/>
</g>
</g>
<mask id="mask-4">
<use xlink:href="#compositing-group-3"/>
</mask>
<mask id="mask-5">
<use xlink:href="#compositing-group-3" filter="url(#filter-remove-color-and-invert-alpha)"/>
</mask>
<g id="compositing-group-4" mask="url(#mask-4)">
<g transform="translate(488.4, 238.103118)">
<rect x="-488.4" y="-238.103118" width="1036.8" height="583.220409" fill="rgb(95.292664%, 94.116211%, 90.586853%)" fill-opacity="1"/>
</g>
</g>
<g id="compositing-group-5" mask="url(#mask-5)">
<g transform="translate(488.4, 238.103118)">
</g>
</g>
<clipPath id="clip-4">
<rect x="0" y="0" width="15" height="173"/>
</clipPath>
<g id="source-10" clip-path="url(#clip-4)">
<g filter="url(#filter-1)" transform="translate(-488.4, -238.103118)">
<rect x="0" y="0" width="1036.8" height="583.220409" fill="rgb(0%, 0%, 0%)" fill-opacity="1"/>
</g>
</g>
<mask id="mask-6">
<g filter="url(#filter-remove-color)">
<rect x="-72" y="-40.501417" width="864" height="486.017008" fill="rgb(0%, 0%, 0%)" fill-opacity="0.09"/>
</g>
</mask>
<g id="compositing-group-6" transform="translate(486.4, 207.103118)">
<rect x="-486.4" y="-207.103118" width="1036.8" height="583.220409" fill="rgb(0%, 0%, 0%)" fill-opacity="0"/>
<clipPath id="clip-5">
<path clip-rule="nonzero" d="M 0.894531 0.226562 L 18.285156 0.226562 L 18.285156 54.523438 L 0.894531 54.523438 Z M 0.894531 0.226562 "/>
</clipPath>
<g clip-path="url(#clip-5)">
<path fill-rule="evenodd" fill="rgb(100%, 100%, 100%)" fill-opacity="1" d="M 18.117188 0.230469 C 17.917969 0.34375 17.746094 0.484375 17.464844 0.597656 C 14.582031 2.238281 10.734375 3.085938 6.917969 3.085938 C 4.851562 3.085938 2.789062 2.828125 0.894531 2.351562 L 1.007812 53.417969 C 2.902344 54.125 5.078125 54.492188 7.257812 54.492188 C 10.253906 54.492188 13.28125 53.785156 15.597656 52.457031 C 16.84375 51.75 17.664062 50.988281 18.257812 50.140625 Z M 18.117188 0.230469 "/>
</g>
</g>
<mask id="mask-7">
<use xlink:href="#compositing-group-6"/>
</mask>
<mask id="mask-8">
<use xlink:href="#compositing-group-6" filter="url(#filter-remove-color-and-invert-alpha)"/>
</mask>
<g id="compositing-group-7" mask="url(#mask-7)">
<g transform="translate(486.4, 207.103118)">
<rect x="-486.4" y="-207.103118" width="1036.8" height="583.220409" fill="rgb(19.999695%, 19.607544%, 19.999695%)" fill-opacity="1"/>
</g>
</g>
<g id="compositing-group-8" mask="url(#mask-8)">
<g transform="translate(486.4, 207.103118)">
</g>
</g>
<clipPath id="clip-6">
<rect x="0" y="0" width="19" height="55"/>
</clipPath>
<g id="source-14" clip-path="url(#clip-6)">
<g filter="url(#filter-2)" transform="translate(-486.4, -207.103118)">
<rect x="0" y="0" width="1036.8" height="583.220409" fill="rgb(0%, 0%, 0%)" fill-opacity="1"/>
</g>
</g>
</defs>
<g clip-path="url(#clip-0)">
</g>
<path fill-rule="evenodd" fill="rgb(89.01825%, 67.842102%, 27.450562%)" fill-opacity="1" d="M 423.398438 50.449219 C 423.285156 50.503906 423.171875 50.558594 423.085938 50.617188 Z M 430.835938 46.742188 C 430.582031 46.800781 430.382812 46.800781 430.183594 46.855469 C 429.875 46.914062 429.621094 46.96875 429.363281 47.109375 C 429.25 47.167969 429.25 47.167969 429.167969 47.167969 C 428.914062 47.308594 428.601562 47.421875 428.347656 47.5625 L 423.398438 50.449219 C 423.539062 50.363281 423.710938 50.304688 423.90625 50.25 C 423.964844 50.25 423.964844 50.191406 424.019531 50.191406 C 424.699219 50.191406 425.011719 50.109375 425.265625 50.023438 C 425.574219 49.964844 425.914062 49.910156 426.171875 49.910156 L 426.367188 49.910156 C 426.679688 49.910156 426.933594 49.910156 427.273438 49.964844 L 427.386719 49.964844 C 427.695312 50.023438 428.007812 50.109375 428.347656 50.191406 C 428.402344 50.191406 428.402344 50.222656 428.460938 50.222656 C 428.800781 50.277344 429.195312 50.449219 429.507812 50.558594 C 429.957031 50.675781 430.296875 50.871094 430.664062 51.011719 C 431.117188 51.265625 431.484375 51.464844 431.882812 51.664062 L 437.140625 48.582031 C 437.027344 48.496094 436.886719 48.4375 436.773438 48.382812 C 436.574219 48.242188 436.460938 48.15625 436.265625 48.101562 C 436.125 48.070312 436.066406 47.988281 435.925781 47.988281 C 435.8125 47.929688 435.753906 47.929688 435.753906 47.875 C 435.527344 47.816406 435.417969 47.734375 435.21875 47.675781 C 435.019531 47.621094 434.90625 47.5625 434.710938 47.480469 C 434.453125 47.421875 434.3125 47.363281 434.199219 47.28125 C 434.003906 47.222656 433.890625 47.167969 433.691406 47.167969 C 433.636719 47.167969 433.550781 47.109375 433.464844 47.109375 C 433.410156 47.109375 433.410156 47.109375 433.351562 47.054688 C 433.296875 46.96875 433.238281 46.96875 433.152344 46.96875 C 432.957031 46.914062 432.785156 46.914062 432.644531 46.855469 C 432.53125 46.855469 432.449219 46.800781 432.390625 46.800781 L 432.078125 46.800781 C 431.882812 46.742188 431.683594 46.742188 431.484375 46.742188 Z M 430.835938 46.742188 "/>
<path fill-rule="evenodd" fill="rgb(86.665344%, 85.096741%, 76.469421%)" fill-opacity="1" d="M 412.457031 253.226562 C 412.457031 253.226562 412.199219 283.652344 413.472656 297.425781 C 414.6875 310.96875 413.867188 340.972656 442.597656 354.855469 C 443.25 355.195312 443.871094 355.507812 444.578125 355.816406 C 446.726562 356.777344 448.988281 357.230469 451.28125 357.230469 C 455.011719 357.230469 458.859375 356.074219 462.394531 354.207031 C 471.273438 349.597656 478.398438 340.460938 478.398438 332.515625 C 478.398438 319.394531 479.21875 291.203125 479.21875 291.203125 C 479.21875 291.203125 472.601562 283.710938 453.996094 271.777344 C 453.316406 271.351562 452.609375 270.898438 451.902344 270.449219 C 451.761719 270.390625 451.5625 270.25 451.363281 270.136719 C 450.347656 269.484375 449.386719 268.835938 448.367188 268.269531 C 447.464844 267.761719 446.585938 267.222656 445.625 266.65625 C 443.417969 265.355469 441.296875 264.28125 439.320312 263.238281 C 438.867188 262.980469 438.355469 262.726562 437.847656 262.472656 C 437.507812 262.273438 437.113281 262.160156 436.800781 261.964844 C 427.355469 257.410156 419.921875 255.09375 415.847656 253.988281 C 413.671875 253.394531 412.457031 253.226562 412.457031 253.226562 Z M 412.457031 253.226562 "/>
<path fill-rule="evenodd" fill="rgb(74.116516%, 60.783386%, 40.783691%)" fill-opacity="1" d="M 415.933594 251.699219 L 412.511719 253.253906 C 412.511719 253.253906 427.472656 257.410156 436.945312 261.992188 C 437.765625 262.417969 438.582031 262.8125 439.433594 263.265625 C 441.46875 264.339844 443.617188 265.441406 445.792969 266.714844 C 446.644531 267.195312 447.519531 267.703125 448.421875 268.296875 C 449.441406 268.863281 450.402344 269.515625 451.421875 270.164062 C 451.5625 270.222656 451.761719 270.363281 451.960938 270.476562 C 472.148438 283.199219 479.273438 291.230469 479.273438 291.230469 C 479.273438 291.230469 478.425781 319.367188 478.425781 332.542969 C 478.425781 340.492188 471.246094 349.625 462.449219 354.261719 C 472.714844 350.472656 481.847656 339.980469 481.847656 331.046875 C 481.847656 317.925781 482.695312 289.734375 482.695312 289.734375 C 482.695312 289.734375 475.484375 281.644531 455.378906 268.921875 C 455.183594 268.808594 455.070312 268.722656 454.84375 268.609375 C 453.824219 267.957031 452.863281 267.308594 451.84375 266.714844 C 450.996094 266.207031 450.09375 265.695312 449.1875 265.1875 C 447.011719 263.886719 444.890625 262.753906 442.851562 261.738281 C 442.003906 261.257812 441.183594 260.804688 440.335938 260.4375 C 425.746094 253.367188 415.933594 251.699219 415.933594 251.699219 Z M 415.933594 251.699219 "/>
<path fill-rule="evenodd" fill="rgb(89.01825%, 67.842102%, 27.450562%)" fill-opacity="1" d="M 446.898438 87.207031 C 445.34375 87.207031 443.925781 87.71875 442.851562 88.59375 C 443.222656 88.539062 443.617188 88.480469 444.070312 88.480469 C 447.660156 88.480469 450.542969 91.363281 450.542969 94.984375 L 450.542969 107.171875 C 451.449219 106.917969 452.296875 106.605469 453.0625 106.15625 C 453.175781 106.070312 453.261719 106.011719 453.371094 105.957031 L 453.371094 93.683594 C 453.371094 90.148438 450.488281 87.265625 446.898438 87.207031 Z M 446.898438 87.207031 "/>
<path fill-rule="evenodd" fill="rgb(19.999695%, 19.607544%, 19.999695%)" fill-opacity="1" d="M 453.371094 257.976562 C 453.316406 258.03125 453.316406 258.089844 453.261719 258.148438 C 452.917969 258.65625 452.410156 259.191406 451.703125 259.558594 C 451.308594 259.757812 450.914062 259.957031 450.542969 260.070312 L 450.542969 262.726562 C 450.996094 262.585938 451.308594 262.386719 451.703125 262.191406 C 452.46875 261.738281 453.0625 261.171875 453.371094 260.523438 Z M 453.371094 257.976562 "/>
<path fill-rule="evenodd" fill="rgb(74.116516%, 60.783386%, 40.783691%)" fill-opacity="1" d="M 440.476562 105.957031 L 440.476562 258.230469 C 440.789062 258.683594 441.296875 259.222656 442.003906 259.589844 C 443.335938 260.410156 445.117188 260.804688 446.898438 260.804688 C 448.167969 260.804688 449.441406 260.605469 450.542969 260.183594 C 450.914062 260.011719 451.335938 259.84375 451.703125 259.644531 C 452.46875 259.191406 453.0625 258.628906 453.371094 258.03125 L 453.371094 106.011719 C 453.261719 106.070312 453.203125 106.125 453.089844 106.210938 C 452.328125 106.664062 451.507812 106.976562 450.601562 107.230469 C 449.46875 107.539062 448.226562 107.679688 447.011719 107.679688 C 444.777344 107.679688 442.542969 107.199219 440.847656 106.210938 C 440.734375 106.125 440.589844 106.011719 440.476562 105.957031 Z M 440.476562 105.957031 "/>
<path fill-rule="evenodd" fill="rgb(89.01825%, 67.842102%, 27.450562%)" fill-opacity="1" d="M 444.097656 88.394531 C 443.617188 88.394531 443.222656 88.453125 442.851562 88.507812 C 441.382812 89.667969 440.421875 91.535156 440.421875 93.597656 L 440.421875 105.871094 C 440.535156 106.011719 440.675781 106.070312 440.789062 106.125 C 442.484375 107.117188 444.71875 107.597656 446.953125 107.597656 C 448.167969 107.597656 449.414062 107.457031 450.574219 107.144531 L 450.574219 94.957031 C 450.574219 91.421875 447.660156 88.507812 444.097656 88.394531 Z M 444.097656 88.394531 "/>
<path fill-rule="evenodd" fill="rgb(19.999695%, 19.607544%, 19.999695%)" fill-opacity="1" d="M 440.421875 258.148438 L 440.421875 260.464844 C 440.734375 261.117188 441.296875 261.679688 442.144531 262.191406 C 443.503906 262.980469 445.257812 263.378906 447.039062 263.378906 C 448.253906 263.378906 449.5 263.179688 450.574219 262.785156 L 450.574219 260.125 C 449.46875 260.523438 448.199219 260.71875 446.898438 260.71875 C 445.144531 260.71875 443.335938 260.351562 441.949219 259.558594 C 441.296875 259.164062 440.789062 258.710938 440.476562 258.257812 C 440.476562 258.203125 440.476562 258.203125 440.421875 258.148438 Z M 440.421875 258.148438 "/>
<g mask="url(#mask-0)">
<use xlink:href="#source-6" transform="matrix(1, 0, 0, 1, 440, 105)"/>
</g>
<path fill-rule="evenodd" fill="rgb(74.116516%, 60.783386%, 40.783691%)" fill-opacity="1" d="M 432.53125 54.238281 C 432.476562 54.265625 432.390625 54.292969 432.332031 54.351562 Z M 432.332031 54.351562 L 427.300781 57.320312 C 427.019531 57.433594 426.761719 57.628906 426.566406 57.882812 C 426.367188 58.082031 426.253906 58.195312 426.199219 58.394531 C 426.085938 58.535156 426 58.703125 425.914062 58.847656 C 425.859375 58.902344 425.859375 58.902344 425.859375 58.957031 C 425.859375 59.042969 425.800781 59.042969 425.800781 59.101562 C 425.746094 59.15625 425.746094 59.214844 425.746094 59.214844 C 425.6875 59.355469 425.6875 59.46875 425.632812 59.554688 C 425.632812 59.609375 425.574219 59.664062 425.574219 59.664062 C 425.492188 59.777344 425.492188 59.863281 425.492188 59.863281 C 425.433594 59.976562 425.433594 60.0625 425.433594 60.175781 C 425.433594 60.316406 425.378906 60.375 425.378906 60.484375 C 425.378906 60.628906 425.320312 60.683594 425.320312 60.824219 L 425.320312 62.097656 C 425.320312 62.15625 425.320312 62.296875 425.378906 62.351562 C 425.433594 62.550781 425.433594 62.605469 425.433594 62.71875 C 425.492188 62.859375 425.492188 62.917969 425.492188 63.03125 C 425.492188 63.117188 425.574219 63.171875 425.574219 63.285156 C 425.632812 63.511719 425.632812 63.625 425.6875 63.765625 C 425.746094 63.878906 425.746094 64.019531 425.746094 64.132812 C 425.800781 64.191406 425.800781 64.246094 425.800781 64.386719 L 428.574219 74.679688 C 428.574219 74.738281 428.628906 74.792969 428.628906 74.792969 C 428.6875 74.90625 428.6875 75.046875 428.742188 75.105469 C 428.742188 75.191406 428.828125 75.246094 428.828125 75.246094 C 428.882812 75.359375 428.882812 75.445312 428.882812 75.445312 C 428.941406 75.558594 428.941406 75.699219 428.996094 75.753906 C 428.996094 75.8125 429.054688 75.8125 429.054688 75.871094 C 429.109375 76.011719 429.109375 76.066406 429.109375 76.066406 C 429.167969 76.207031 429.167969 76.265625 429.222656 76.40625 C 429.308594 76.464844 429.308594 76.464844 429.308594 76.519531 C 429.363281 76.632812 429.363281 76.632812 429.363281 76.71875 C 429.421875 76.832031 429.476562 76.914062 429.476562 77.027344 C 429.476562 77.085938 429.535156 77.167969 429.535156 77.167969 C 429.621094 77.28125 429.621094 77.367188 429.675781 77.367188 C 429.730469 77.480469 429.789062 77.621094 429.875 77.734375 C 429.929688 77.847656 429.988281 77.933594 430.042969 77.992188 C 430.128906 78.101562 430.183594 78.1875 430.269531 78.246094 C 430.441406 78.554688 430.582031 78.753906 430.777344 79.007812 C 430.890625 79.148438 430.890625 79.207031 430.976562 79.289062 C 431.03125 79.347656 431.089844 79.460938 431.175781 79.546875 C 431.289062 79.714844 431.429688 79.855469 431.484375 79.96875 C 431.597656 80.195312 431.683594 80.25 431.742188 80.308594 L 431.9375 80.507812 C 432.136719 80.703125 432.191406 80.761719 432.25 80.875 L 432.390625 81.015625 L 432.449219 81.070312 C 432.503906 81.128906 432.503906 81.128906 432.503906 81.1875 L 432.757812 81.441406 C 432.816406 81.496094 432.898438 81.496094 432.898438 81.550781 L 433.070312 81.777344 L 433.269531 81.976562 C 433.464844 82.089844 433.550781 82.144531 433.664062 82.289062 L 433.777344 82.402344 C 434.03125 82.597656 434.085938 82.65625 434.226562 82.710938 C 434.425781 82.824219 434.484375 82.910156 434.484375 82.910156 C 434.597656 82.996094 434.679688 83.050781 434.765625 83.109375 C 434.90625 83.109375 440.109375 80.082031 440.109375 80.082031 C 439.714844 79.402344 439.574219 79.320312 439.460938 79.207031 C 439.261719 79.066406 439.066406 78.949219 438.949219 78.894531 C 438.667969 78.695312 438.554688 78.554688 438.414062 78.5 C 438.246094 78.386719 438.101562 78.246094 437.960938 78.132812 L 437.507812 77.679688 C 437.3125 77.480469 437.199219 77.28125 437.054688 77.167969 C 436.859375 76.945312 436.746094 76.832031 436.660156 76.632812 C 436.492188 76.433594 436.40625 76.265625 436.292969 76.125 C 436.238281 76.066406 436.179688 75.925781 436.09375 75.871094 C 436.039062 75.726562 435.980469 75.671875 435.898438 75.613281 C 435.699219 75.359375 435.585938 75.105469 435.445312 74.878906 C 435.386719 74.765625 435.332031 74.679688 435.246094 74.570312 C 435.191406 74.511719 435.132812 74.371094 435.132812 74.3125 C 435.019531 74.117188 434.9375 74.003906 434.878906 73.804688 C 434.765625 73.550781 434.679688 73.351562 434.539062 73.152344 C 434.425781 72.898438 434.34375 72.703125 434.285156 72.53125 C 434.171875 72.277344 434.085938 72.078125 434.03125 71.882812 C 433.917969 71.628906 433.917969 71.429688 433.832031 71.257812 L 431.0625 60.964844 C 430.949219 60.65625 430.890625 60.316406 430.808594 59.976562 C 430.75 59.664062 430.695312 59.355469 430.695312 59.101562 C 430.636719 58.789062 430.636719 58.535156 430.636719 58.195312 C 430.636719 57.882812 430.695312 57.628906 430.695312 57.375 C 430.75 57.09375 430.75 56.835938 430.808594 56.667969 C 430.890625 56.414062 430.949219 56.214844 431.0625 56.019531 C 431.0625 55.960938 431.148438 55.960938 431.148438 55.878906 C 431.257812 55.707031 431.316406 55.507812 431.457031 55.3125 C 431.570312 55.113281 431.710938 54.945312 431.824219 54.800781 C 432.023438 54.605469 432.164062 54.460938 432.332031 54.351562 Z M 432.332031 54.351562 "/>
<path fill-rule="evenodd" fill="rgb(36.470032%, 26.66626%, 19.999695%)" fill-opacity="1" d="M 463.523438 91.054688 L 463.296875 91.195312 C 463.355469 91.140625 463.4375 91.109375 463.523438 91.054688 Z M 439.828125 79.488281 L 434.570312 82.570312 L 453.769531 93.683594 C 453.824219 93.742188 453.882812 93.742188 453.964844 93.824219 C 454.078125 93.882812 454.164062 93.9375 454.21875 93.9375 C 454.277344 93.996094 454.335938 93.996094 454.417969 93.996094 C 454.617188 94.050781 454.671875 94.109375 454.730469 94.109375 C 454.871094 94.164062 454.929688 94.164062 454.984375 94.25 C 455.125 94.304688 455.183594 94.304688 455.238281 94.363281 C 455.378906 94.417969 455.4375 94.417969 455.492188 94.417969 C 455.578125 94.417969 455.578125 94.476562 455.636719 94.476562 L 455.746094 94.53125 C 455.859375 94.589844 455.945312 94.589844 456.003906 94.589844 C 456.085938 94.589844 456.144531 94.589844 456.199219 94.644531 C 456.457031 94.730469 456.511719 94.730469 456.652344 94.730469 L 456.992188 94.730469 C 457.105469 94.730469 457.246094 94.644531 457.359375 94.644531 C 457.558594 94.589844 457.671875 94.589844 457.8125 94.53125 C 458.011719 94.476562 458.207031 94.390625 458.320312 94.277344 L 463.296875 91.195312 C 463.183594 91.253906 463.128906 91.28125 462.988281 91.308594 C 462.875 91.394531 462.734375 91.449219 462.535156 91.449219 C 462.335938 91.507812 462.167969 91.507812 462.027344 91.507812 L 461.460938 91.507812 C 461.207031 91.449219 461.0625 91.449219 460.894531 91.394531 C 460.640625 91.308594 460.414062 91.253906 460.300781 91.195312 C 460.046875 91.109375 459.847656 90.996094 459.679688 90.941406 C 459.425781 90.800781 459.199219 90.6875 459.027344 90.601562 Z M 439.828125 79.488281 "/>
<path fill-rule="evenodd" fill="rgb(74.116516%, 60.783386%, 40.783691%)" fill-opacity="1" d="M 471.273438 73.945312 L 466.011719 77 C 466.125 77.3125 466.265625 77.566406 466.378906 77.847656 C 466.4375 77.90625 466.4375 77.960938 466.4375 78.046875 C 466.578125 78.300781 466.691406 78.554688 466.777344 78.867188 C 466.832031 79.207031 466.976562 79.460938 467.085938 79.714844 C 467.144531 79.769531 467.144531 79.828125 467.144531 79.914062 C 467.230469 80.167969 467.339844 80.421875 467.398438 80.675781 C 467.539062 81.015625 467.597656 81.269531 467.652344 81.523438 C 467.738281 81.582031 467.738281 81.722656 467.738281 81.777344 C 467.792969 82.035156 467.851562 82.230469 467.851562 82.402344 C 467.851562 82.488281 467.90625 82.542969 467.90625 82.597656 C 467.964844 82.851562 468.050781 83.136719 468.050781 83.390625 C 468.050781 83.445312 468.050781 83.503906 468.105469 83.5625 C 468.160156 83.84375 468.160156 84.042969 468.21875 84.210938 C 468.21875 84.265625 468.21875 84.324219 468.277344 84.410156 C 468.332031 84.664062 468.332031 84.917969 468.332031 85.171875 L 468.332031 85.371094 C 468.332031 85.566406 468.332031 85.851562 468.386719 86.019531 L 468.386719 87.066406 C 468.386719 87.238281 468.332031 87.433594 468.332031 87.632812 C 468.332031 87.6875 468.332031 87.746094 468.277344 87.832031 C 468.21875 88.027344 468.21875 88.199219 468.21875 88.339844 C 468.21875 88.394531 468.21875 88.453125 468.160156 88.539062 C 468.105469 88.792969 468.105469 88.988281 468.050781 89.1875 C 468.050781 89.242188 467.964844 89.300781 467.964844 89.386719 C 467.90625 89.554688 467.90625 89.695312 467.851562 89.894531 C 467.792969 90.007812 467.792969 90.09375 467.738281 90.207031 C 467.652344 90.402344 467.597656 90.515625 467.539062 90.660156 L 464.769531 97.785156 C 464.710938 97.980469 464.570312 98.152344 464.515625 98.292969 C 464.402344 98.546875 464.257812 98.832031 464.148438 99.027344 C 464.089844 99.085938 464.089844 99.140625 464.035156 99.199219 C 463.890625 99.394531 463.777344 99.539062 463.695312 99.652344 C 463.496094 99.90625 463.328125 100.101562 463.183594 100.246094 C 463.128906 100.300781 463.070312 100.300781 463.070312 100.359375 C 462.929688 100.46875 462.816406 100.613281 462.675781 100.667969 C 462.621094 100.726562 462.5625 100.726562 462.5625 100.808594 C 462.363281 100.921875 462.253906 101.0625 462.054688 101.179688 L 467.3125 98.09375 C 467.511719 97.980469 467.679688 97.839844 467.824219 97.726562 C 467.878906 97.671875 467.933594 97.671875 468.019531 97.613281 C 468.132812 97.5 468.277344 97.386719 468.386719 97.277344 C 468.445312 97.21875 468.53125 97.21875 468.53125 97.160156 C 468.699219 96.964844 468.839844 96.851562 468.980469 96.652344 C 469.179688 96.398438 469.292969 96.285156 469.351562 96.058594 C 469.605469 95.691406 469.71875 95.4375 469.859375 95.183594 C 469.914062 94.984375 470.085938 94.785156 470.140625 94.644531 L 472.882812 87.519531 C 472.941406 87.464844 472.941406 87.40625 472.941406 87.347656 C 472.996094 87.207031 472.996094 87.152344 473.054688 87.09375 C 473.136719 86.953125 473.136719 86.898438 473.195312 86.757812 C 473.253906 86.585938 473.308594 86.445312 473.308594 86.246094 C 473.308594 86.191406 473.363281 86.132812 473.363281 86.046875 C 473.421875 85.792969 473.476562 85.597656 473.476562 85.425781 C 473.476562 85.285156 473.535156 85.199219 473.535156 85.199219 C 473.621094 85.085938 473.621094 84.945312 473.621094 84.832031 C 473.621094 84.777344 473.621094 84.71875 473.675781 84.636719 C 473.675781 84.578125 473.675781 84.523438 473.730469 84.4375 L 473.730469 84.238281 C 473.730469 84.125 473.789062 83.984375 473.789062 83.871094 L 473.789062 83.757812 C 473.789062 83.503906 473.847656 83.304688 473.847656 83.164062 C 473.847656 83.191406 473.816406 83.191406 473.789062 83.191406 C 473.730469 83.191406 473.730469 83.136719 473.730469 83.136719 L 473.730469 82.65625 C 473.730469 82.542969 473.730469 82.402344 473.675781 82.289062 L 473.675781 82.089844 C 473.675781 81.835938 473.589844 81.636719 473.589844 81.46875 C 473.589844 81.269531 473.535156 81.269531 473.535156 81.214844 C 473.535156 81.070312 473.476562 81.015625 473.476562 80.875 C 473.476562 80.761719 473.421875 80.621094 473.421875 80.5625 C 473.421875 80.507812 473.363281 80.449219 473.363281 80.367188 C 473.28125 80.054688 473.28125 79.855469 473.222656 79.628906 C 473.167969 79.515625 473.167969 79.460938 473.167969 79.375 C 473.109375 79.261719 473.109375 79.121094 473.109375 79.007812 C 473.054688 78.894531 473.054688 78.808594 473.054688 78.753906 C 472.996094 78.695312 472.996094 78.554688 472.996094 78.5 C 472.996094 78.441406 472.941406 78.386719 472.941406 78.300781 C 472.882812 78.101562 472.800781 77.847656 472.742188 77.679688 C 472.6875 77.425781 472.628906 77.199219 472.515625 77.027344 C 472.460938 76.972656 472.460938 76.914062 472.460938 76.832031 C 472.402344 76.773438 472.402344 76.71875 472.402344 76.632812 C 472.347656 76.574219 472.347656 76.519531 472.347656 76.433594 C 472.289062 76.238281 472.234375 76.039062 472.09375 75.871094 C 472.035156 75.671875 471.980469 75.472656 471.835938 75.273438 C 471.78125 75.164062 471.78125 75.078125 471.726562 75.019531 C 471.667969 74.964844 471.667969 74.90625 471.667969 74.824219 C 471.613281 74.765625 471.613281 74.710938 471.613281 74.625 C 471.527344 74.425781 471.414062 74.257812 471.355469 74.058594 C 471.273438 74.003906 471.273438 73.945312 471.273438 73.945312 Z M 471.273438 73.945312 "/>
<path fill-rule="evenodd" fill="rgb(89.01825%, 67.842102%, 27.450562%)" fill-opacity="1" d="M 436.972656 48.382812 L 431.710938 51.464844 L 456.511719 65.773438 C 456.765625 65.914062 456.964844 66.027344 457.21875 66.226562 C 457.273438 66.28125 457.332031 66.28125 457.417969 66.339844 C 457.640625 66.480469 457.839844 66.621094 457.980469 66.679688 C 458.039062 66.734375 458.09375 66.792969 458.179688 66.792969 C 458.433594 66.988281 458.632812 67.128906 458.800781 67.300781 C 459 67.527344 459.253906 67.640625 459.453125 67.839844 L 459.652344 68.035156 C 459.847656 68.148438 459.960938 68.289062 460.101562 68.402344 L 460.808594 69.109375 L 460.921875 69.25 C 461.121094 69.421875 461.289062 69.621094 461.515625 69.875 L 461.714844 70.074219 C 461.914062 70.269531 462.027344 70.382812 462.167969 70.582031 L 462.363281 70.808594 C 462.5625 71.003906 462.734375 71.257812 462.875 71.429688 C 463.128906 71.683594 463.242188 71.9375 463.46875 72.195312 C 463.722656 72.53125 463.890625 72.785156 464.089844 73.097656 C 464.457031 73.664062 464.796875 74.171875 465.109375 74.710938 C 465.304688 75.078125 465.503906 75.417969 465.703125 75.671875 C 465.8125 75.925781 466.011719 76.179688 466.15625 76.519531 C 466.210938 76.574219 466.210938 76.632812 466.210938 76.71875 C 466.324219 76.972656 466.464844 77.226562 466.578125 77.539062 L 471.867188 74.453125 C 471.78125 74.257812 471.726562 74.144531 471.667969 74.003906 C 471.582031 73.890625 471.527344 73.75 471.46875 73.636719 C 471.414062 73.578125 471.414062 73.492188 471.414062 73.4375 C 471.1875 73.125 471.132812 72.84375 471.019531 72.644531 C 470.820312 72.277344 470.652344 72.023438 470.453125 71.683594 C 470.113281 71.117188 469.800781 70.582031 469.40625 70.074219 C 469.152344 69.675781 468.953125 69.421875 468.699219 69.109375 C 468.5 68.855469 468.332031 68.601562 468.191406 68.402344 C 467.964844 68.148438 467.851562 68.007812 467.710938 67.808594 C 467.652344 67.753906 467.652344 67.695312 467.597656 67.695312 L 467.398438 67.5 C 467.339844 67.441406 467.285156 67.300781 467.199219 67.246094 L 466.945312 66.988281 L 466.75 66.792969 C 466.492188 66.539062 466.378906 66.339844 466.183594 66.226562 L 466.039062 66.085938 L 465.671875 65.71875 C 465.617188 65.660156 465.558594 65.660156 465.558594 65.574219 L 465.363281 65.40625 L 465.164062 65.207031 C 465.109375 65.125 464.964844 65.066406 464.882812 65.011719 L 464.710938 64.8125 L 464.570312 64.699219 C 464.371094 64.558594 464.203125 64.359375 464.0625 64.21875 C 463.863281 64.105469 463.695312 63.964844 463.554688 63.851562 C 463.496094 63.792969 463.496094 63.792969 463.4375 63.792969 C 463.355469 63.738281 463.296875 63.652344 463.242188 63.652344 C 463.183594 63.597656 463.042969 63.539062 462.988281 63.484375 C 462.84375 63.398438 462.761719 63.34375 462.648438 63.257812 C 462.589844 63.199219 462.535156 63.199219 462.449219 63.144531 C 462.195312 62.945312 462.082031 62.890625 461.882812 62.777344 C 461.828125 62.691406 461.828125 62.691406 461.769531 62.691406 Z M 436.972656 48.382812 "/>
<path fill-rule="evenodd" fill="rgb(89.01825%, 67.842102%, 27.450562%)" fill-opacity="1" d="M 429.109375 57.148438 C 429.957031 57.148438 430.890625 57.433594 431.882812 58.027344 L 456.683594 72.363281 C 458.746094 73.523438 460.613281 75.699219 461.769531 78.328125 C 462.929688 80.902344 463.183594 83.476562 462.480469 85.285156 L 459.621094 92.328125 C 459.058594 93.796875 457.925781 94.53125 456.539062 94.53125 C 455.691406 94.53125 454.730469 94.25 453.769531 93.710938 L 434.570312 82.570312 C 431.996094 81.101562 429.675781 77.875 428.800781 74.539062 L 426.027344 64.246094 C 425.320312 61.617188 425.632812 59.441406 426.792969 58.136719 C 427.414062 57.488281 428.207031 57.148438 429.109375 57.148438 Z M 426.621094 49.910156 C 424.898438 49.910156 423.371094 50.503906 422.238281 51.75 C 420.003906 54.066406 419.4375 58.421875 420.769531 63.371094 L 423.539062 73.636719 C 425.207031 80.023438 429.648438 86.191406 434.597656 88.988281 L 453.796875 100.132812 C 455.664062 101.207031 457.472656 101.742188 459.085938 101.742188 C 461.742188 101.742188 463.835938 100.328125 464.910156 97.613281 L 467.679688 90.488281 C 469.039062 87.152344 468.5 82.144531 466.324219 77.253906 C 464.148438 72.363281 460.554688 68.121094 456.765625 65.859375 L 431.96875 51.550781 C 430.101562 50.449219 428.261719 49.910156 426.621094 49.910156 Z M 426.621094 49.910156 "/>
<path fill-rule="evenodd" fill="rgb(95.292664%, 94.116211%, 90.586853%)" fill-opacity="1" d="M 453.371094 260.550781 Z M 453.175781 260.378906 C 452.917969 261.003906 452.355469 261.511719 451.507812 262.019531 C 451.195312 262.246094 450.800781 262.445312 450.402344 262.558594 C 449.359375 262.925781 448.140625 263.152344 446.925781 263.152344 C 446.671875 263.152344 446.417969 263.152344 446.164062 263.125 L 445.792969 313.824219 C 446.105469 315.378906 446.5 316.652344 446.867188 317.613281 C 446.867188 317.613281 452.609375 287.726562 453.371094 260.550781 C 453.316406 260.550781 453.203125 260.410156 453.175781 260.378906 Z M 453.175781 260.378906 "/>
<path fill-rule="evenodd" fill="rgb(95.292664%, 94.116211%, 90.586853%)" fill-opacity="1" d="M 440.476562 260.550781 C 441.808594 275 443.816406 305.511719 445.792969 313.882812 L 450.574219 262.273438 C 450.488281 262.273438 450.402344 262.273438 450.289062 262.273438 C 449.242188 262.273438 446.785156 262.445312 444.832031 262.445312 C 443.617188 262.445312 442.597656 262.386719 442.203125 262.132812 C 441.496094 261.679688 440.789062 261.058594 440.476562 260.550781 Z M 440.476562 260.550781 "/>
<path fill-rule="evenodd" fill="rgb(19.999695%, 19.607544%, 19.999695%)" fill-opacity="1" d="M 327.535156 318.207031 L 327.535156 321.546875 C 327.90625 322.394531 328.613281 323.101562 329.714844 323.722656 C 330.167969 323.976562 330.675781 324.230469 331.183594 324.457031 L 331.183594 320.949219 C 330.648438 320.753906 330.140625 320.5 329.714844 320.246094 C 328.808594 319.734375 328.160156 319.167969 327.707031 318.433594 C 327.652344 318.378906 327.59375 318.320312 327.535156 318.207031 Z M 327.535156 318.207031 "/>
<path fill-rule="evenodd" fill="rgb(19.999695%, 19.607544%, 19.999695%)" fill-opacity="1" d="M 344.222656 318.574219 C 344.136719 318.632812 344.136719 318.632812 344.136719 318.691406 C 343.683594 319.339844 343.0625 319.847656 342.214844 320.355469 C 340.488281 321.289062 338.226562 321.800781 335.964844 321.800781 C 334.296875 321.800781 332.597656 321.515625 331.15625 320.949219 L 331.15625 324.429688 C 332.542969 324.9375 334.152344 325.222656 335.765625 325.222656 C 338 325.222656 340.261719 324.710938 341.957031 323.722656 C 343.0625 323.070312 343.824219 322.308594 344.222656 321.546875 Z M 344.222656 318.574219 "/>
<path fill-rule="evenodd" fill="rgb(36.470032%, 26.66626%, 19.999695%)" fill-opacity="1" d="M 343.542969 149.898438 C 343.34375 150.011719 343.230469 150.097656 343.089844 150.210938 C 340.882812 151.484375 337.972656 152.132812 335.085938 152.132812 C 333.53125 152.132812 331.949219 151.9375 330.476562 151.566406 C 329.320312 151.230469 328.246094 150.832031 327.226562 150.265625 C 327.113281 150.210938 326.972656 150.15625 326.859375 150.039062 L 327.480469 318.179688 C 327.933594 318.972656 328.640625 319.648438 329.6875 320.246094 C 330.109375 320.5 330.621094 320.753906 331.128906 320.949219 C 332.570312 321.515625 334.210938 321.769531 335.878906 321.769531 C 338.140625 321.769531 340.429688 321.261719 342.183594 320.246094 C 343.089844 319.734375 343.742188 319.085938 344.191406 318.433594 Z M 343.542969 149.898438 "/>
<g mask="url(#mask-3)">
<use xlink:href="#source-10" transform="matrix(1, 0, 0, 1, 330, 149)"/>
</g>
<path fill-rule="evenodd" fill="rgb(86.665344%, 85.096741%, 76.469421%)" fill-opacity="1" d="M 346.171875 118.230469 C 345.972656 118.34375 345.804688 118.484375 345.523438 118.597656 C 342.609375 120.320312 338.792969 121.140625 334.972656 121.140625 C 332.882812 121.140625 330.816406 120.886719 328.894531 120.40625 C 327.339844 120.039062 325.925781 119.445312 324.597656 118.738281 C 324.484375 118.570312 324.3125 118.453125 324.117188 118.285156 L 324.230469 167.773438 C 324.824219 168.789062 325.699219 169.695312 327.140625 170.542969 C 327.707031 170.910156 328.355469 171.164062 329.0625 171.417969 C 330.957031 172.125 333.136719 172.492188 335.3125 172.492188 C 338.3125 172.492188 341.335938 171.785156 343.65625 170.457031 C 344.898438 169.75 345.71875 168.988281 346.3125 168.140625 Z M 346.171875 118.230469 "/>
<g mask="url(#mask-6)">
<use xlink:href="#source-14" transform="matrix(1, 0, 0, 1, 328, 118)"/>
</g>
<path fill-rule="evenodd" fill="rgb(86.665344%, 85.096741%, 76.469421%)" fill-opacity="1" d="M 420.089844 94.222656 L 391.753906 103.808594 L 353.921875 116.984375 L 324.992188 133.019531 L 237.304688 174.8125 L 321.402344 142.40625 L 328.980469 145.6875 L 343.570312 138.617188 L 358.105469 123.914062 Z M 420.089844 94.222656 "/>
<path fill-rule="evenodd" fill="rgb(86.665344%, 85.096741%, 76.469421%)" fill-opacity="1" d="M 402.558594 84.15625 L 338.566406 105.84375 L 316.988281 118.398438 L 237.304688 174.8125 L 334.578125 128.464844 L 352.960938 117.804688 L 420.089844 94.222656 L 411.351562 89.214844 Z M 402.558594 84.15625 "/>
<path fill-rule="evenodd" fill="rgb(36.470032%, 26.66626%, 19.999695%)" fill-opacity="1" d="M 335.085938 108.671875 C 330.449219 108.671875 326.773438 112.375 326.773438 117.011719 L 326.773438 119.472656 C 326.886719 119.585938 327.027344 119.671875 327.226562 119.726562 C 328.1875 120.292969 329.289062 120.6875 330.507812 121.027344 L 330.507812 118.710938 C 330.507812 114.074219 334.210938 110.339844 338.847656 110.339844 C 339.355469 110.339844 339.921875 110.394531 340.375 110.453125 C 338.988281 109.320312 337.125 108.671875 335.171875 108.671875 C 335.144531 108.671875 335.117188 108.671875 335.085938 108.671875 Z M 335.085938 108.671875 "/>
<path fill-rule="evenodd" fill="rgb(36.470032%, 26.66626%, 19.999695%)" fill-opacity="1" d="M 339.074219 110.199219 C 338.933594 110.199219 338.792969 110.199219 338.648438 110.226562 C 334.097656 110.28125 330.363281 114.074219 330.363281 118.597656 L 330.363281 120.945312 C 331.808594 121.339844 333.363281 121.507812 334.945312 121.507812 C 337.828125 121.507812 340.742188 120.859375 342.949219 119.585938 C 343.148438 119.472656 343.257812 119.386719 343.429688 119.273438 L 343.429688 116.898438 C 343.429688 114.242188 342.183594 111.867188 340.207031 110.339844 C 339.808594 110.253906 339.441406 110.199219 339.074219 110.199219 Z M 339.074219 110.199219 "/>
</svg>
