<?xml version="1.0" encoding="UTF-8"?>
<svg xmlns="http://www.w3.org/2000/svg" xmlns:xlink="http://www.w3.org/1999/xlink" width="27.0" height="27.0" viewBox="346.5 189.0 27.0 27.0">
<defs>
<clipPath id="clip-0">
<path clip-rule="nonzero" d="M 0.875 0 L 719.097656 0 L 719.097656 404.003906 L 0.875 404.003906 Z M 0.875 0 "/>
</clipPath>
</defs>
<g clip-path="url(#clip-0)">
</g>
<path fill-rule="evenodd" fill="rgb(19.999695%, 19.607544%, 19.999695%)" fill-opacity="1" d="M 362.800781 195.03125 C 363.816406 195.199219 364.75 195.679688 365.515625 196.417969 C 366.25 197.179688 366.730469 198.113281 366.898438 199.132812 Z M 360 193.84375 C 360.167969 193.84375 360.3125 193.898438 360.425781 194.011719 L 367.917969 201.507812 C 368.03125 201.621094 368.085938 201.761719 368.085938 201.929688 C 368.085938 202.074219 368.03125 202.214844 367.917969 202.328125 C 367.804688 202.4375 367.664062 202.496094 367.523438 202.496094 C 367.351562 202.496094 367.210938 202.4375 367.125 202.328125 L 359.605469 194.832031 C 359.492188 194.71875 359.433594 194.578125 359.433594 194.410156 C 359.433594 194.265625 359.492188 194.125 359.605469 194.011719 C 359.71875 193.898438 359.859375 193.84375 360 193.84375 Z M 359.152344 195.710938 L 366.222656 202.777344 L 365.628906 203.375 C 364.664062 204.332031 363.363281 204.84375 362.09375 204.84375 C 360.820312 204.84375 359.546875 204.332031 358.558594 203.375 C 356.605469 201.421875 356.605469 198.253906 358.558594 196.304688 Z M 360 192.910156 C 359.605469 192.910156 359.238281 193.050781 358.925781 193.335938 C 358.640625 193.617188 358.5 194.011719 358.5 194.410156 C 358.5 194.605469 358.53125 194.777344 358.585938 194.945312 L 357.878906 195.625 C 356.4375 197.09375 355.898438 199.101562 356.265625 200.96875 L 353.410156 203.824219 C 353.214844 204.023438 353.214844 204.304688 353.410156 204.503906 C 353.496094 204.589844 353.609375 204.644531 353.75 204.644531 C 353.863281 204.644531 353.976562 204.589844 354.0625 204.503906 L 356.550781 202.015625 C 356.832031 202.75 357.285156 203.457031 357.878906 204.050781 C 358.472656 204.644531 359.179688 205.070312 359.914062 205.378906 L 352.789062 212.476562 C 352.335938 212.929688 351.742188 213.183594 351.121094 213.183594 C 350.5 213.183594 349.90625 212.929688 349.453125 212.476562 C 349 212.027344 348.746094 211.429688 348.746094 210.808594 C 348.746094 210.1875 349 209.59375 349.453125 209.140625 L 351.066406 207.53125 C 351.234375 207.332031 351.234375 207.050781 351.066406 206.851562 C 350.949219 206.765625 350.839844 206.710938 350.722656 206.710938 C 350.582031 206.710938 350.46875 206.765625 350.386719 206.851562 L 348.773438 208.460938 C 348.152344 209.085938 347.8125 209.933594 347.8125 210.808594 C 347.8125 211.6875 348.152344 212.535156 348.773438 213.15625 C 349.394531 213.777344 350.242188 214.148438 351.121094 214.148438 C 351.996094 214.148438 352.84375 213.777344 353.46875 213.15625 L 360.960938 205.664062 C 361.328125 205.75 361.695312 205.777344 362.09375 205.777344 C 363.621094 205.777344 365.144531 205.210938 366.304688 204.050781 L 366.984375 203.34375 C 367.15625 203.402344 367.324219 203.429688 367.523438 203.429688 C 367.917969 203.429688 368.3125 203.289062 368.597656 203.003906 C 368.878906 202.695312 369.050781 202.328125 369.050781 201.929688 C 369.050781 201.507812 368.878906 201.136719 368.597656 200.855469 L 367.890625 200.148438 C 367.972656 198.507812 367.351562 196.925781 366.191406 195.738281 C 365.089844 194.636719 363.589844 194.039062 362.035156 194.039062 C 361.953125 194.039062 361.867188 194.039062 361.78125 194.039062 L 361.101562 193.335938 C 360.792969 193.050781 360.425781 192.910156 360 192.910156 Z M 360 192.910156 "/>
<path fill-rule="evenodd" fill="rgb(19.999695%, 19.607544%, 19.999695%)" fill-opacity="1" d="M 355.617188 205.832031 C 355.730469 205.832031 355.871094 205.890625 355.957031 205.976562 C 356.125 206.144531 356.125 206.453125 355.957031 206.652344 L 355.53125 207.050781 L 354.855469 206.398438 L 355.277344 205.976562 C 355.363281 205.890625 355.503906 205.832031 355.617188 205.832031 Z M 354.203125 207.078125 L 354.855469 207.726562 L 354.457031 208.152344 C 354.34375 208.234375 354.230469 208.292969 354.117188 208.292969 C 353.976562 208.292969 353.863281 208.234375 353.777344 208.152344 C 353.695312 208.066406 353.636719 207.953125 353.636719 207.8125 C 353.636719 207.699219 353.695312 207.558594 353.777344 207.472656 Z M 355.617188 204.898438 C 355.25 204.898438 354.882812 205.011719 354.628906 205.296875 L 353.101562 206.824219 C 352.84375 207.078125 352.703125 207.445312 352.703125 207.8125 C 352.703125 208.207031 352.84375 208.546875 353.101562 208.832031 C 353.382812 209.085938 353.722656 209.253906 354.117188 209.253906 C 354.484375 209.253906 354.855469 209.085938 355.136719 208.832031 L 356.636719 207.332031 C 357.199219 206.765625 357.199219 205.859375 356.636719 205.296875 C 356.351562 205.011719 355.984375 204.898438 355.617188 204.898438 Z M 355.617188 204.898438 "/>
<path fill-rule="evenodd" fill="rgb(19.999695%, 19.607544%, 19.999695%)" fill-opacity="1" d="M 370.152344 191.296875 C 370.039062 191.296875 369.925781 191.328125 369.8125 191.410156 L 367.4375 193.816406 C 367.265625 193.984375 367.265625 194.296875 367.4375 194.492188 C 367.523438 194.578125 367.664062 194.605469 367.777344 194.605469 C 367.890625 194.605469 368.03125 194.578125 368.117188 194.492188 L 370.492188 192.089844 C 370.6875 191.921875 370.6875 191.609375 370.492188 191.410156 C 370.40625 191.328125 370.265625 191.296875 370.152344 191.296875 Z M 370.152344 191.296875 "/>
<path fill-rule="evenodd" fill="rgb(19.999695%, 19.607544%, 19.999695%)" fill-opacity="1" d="M 366.671875 189.855469 C 366.53125 189.855469 366.363281 189.914062 366.277344 190.082031 L 364.722656 192.769531 C 364.609375 192.996094 364.664062 193.304688 364.890625 193.417969 C 364.976562 193.476562 365.0625 193.503906 365.144531 193.503906 C 365.289062 193.503906 365.457031 193.417969 365.542969 193.25 L 367.097656 190.5625 C 367.238281 190.335938 367.15625 190.027344 366.929688 189.914062 C 366.84375 189.855469 366.757812 189.855469 366.671875 189.855469 Z M 366.671875 189.855469 "/>
<path fill-rule="evenodd" fill="rgb(19.999695%, 19.607544%, 19.999695%)" fill-opacity="1" d="M 362.914062 190.5625 C 362.6875 190.5625 362.488281 190.675781 362.460938 190.902344 L 362.0625 192.289062 C 362.007812 192.542969 362.148438 192.796875 362.402344 192.882812 C 362.433594 192.882812 362.488281 192.882812 362.515625 192.882812 C 362.742188 192.882812 362.941406 192.738281 362.996094 192.542969 L 363.363281 191.15625 C 363.449219 190.902344 363.28125 190.648438 363.027344 190.5625 C 362.996094 190.5625 362.941406 190.5625 362.914062 190.5625 Z M 362.914062 190.5625 "/>
<path fill-rule="evenodd" fill="rgb(19.999695%, 19.607544%, 19.999695%)" fill-opacity="1" d="M 371.621094 194.777344 C 371.535156 194.777344 371.480469 194.777344 371.394531 194.832031 L 368.710938 196.386719 C 368.484375 196.53125 368.425781 196.8125 368.539062 197.039062 C 368.625 197.179688 368.792969 197.265625 368.964844 197.265625 C 369.050781 197.265625 369.105469 197.265625 369.191406 197.207031 L 371.878906 195.652344 C 372.101562 195.511719 372.160156 195.230469 372.046875 195.003906 C 371.960938 194.859375 371.792969 194.777344 371.621094 194.777344 Z M 371.621094 194.777344 "/>
<path fill-rule="evenodd" fill="rgb(19.999695%, 19.607544%, 19.999695%)" fill-opacity="1" d="M 370.945312 198.59375 C 370.886719 198.59375 370.859375 198.59375 370.800781 198.59375 L 369.417969 198.960938 C 369.160156 199.046875 369.019531 199.300781 369.078125 199.554688 C 369.132812 199.78125 369.332031 199.921875 369.53125 199.921875 C 369.585938 199.921875 369.613281 199.894531 369.671875 199.894531 L 371.054688 199.527344 C 371.3125 199.441406 371.480469 199.1875 371.394531 198.933594 C 371.339844 198.734375 371.140625 198.59375 370.945312 198.59375 Z M 370.945312 198.59375 "/>
<path fill-rule="evenodd" fill="rgb(19.999695%, 19.607544%, 19.999695%)" fill-opacity="1" d="M 352.195312 205.210938 C 351.941406 205.210938 351.742188 205.410156 351.742188 205.664062 C 351.742188 205.945312 351.941406 206.171875 352.195312 206.171875 C 352.476562 206.171875 352.703125 205.945312 352.703125 205.664062 C 352.703125 205.410156 352.476562 205.210938 352.195312 205.210938 Z M 352.195312 205.210938 "/>
</svg>
