<?xml version="1.0" encoding="UTF-8"?>
<svg xmlns="http://www.w3.org/2000/svg" xmlns:xlink="http://www.w3.org/1999/xlink" width="27.0" height="27.0" viewBox="346.5 189.0 27.0 27.0">
<defs>
<clipPath id="clip-0">
<path clip-rule="nonzero" d="M 0.875 0 L 719.097656 0 L 719.097656 404.003906 L 0.875 404.003906 Z M 0.875 0 "/>
</clipPath>
</defs>
<g clip-path="url(#clip-0)">
</g>
<path fill-rule="evenodd" fill="rgb(19.999695%, 19.607544%, 19.999695%)" fill-opacity="1" d="M 359.941406 203.429688 C 361.921875 203.429688 363.535156 205.042969 363.535156 206.992188 C 363.535156 208.972656 361.921875 210.582031 359.941406 210.582031 C 357.992188 210.582031 356.378906 208.972656 356.378906 206.992188 C 356.378906 205.042969 357.992188 203.429688 359.941406 203.429688 Z M 359.941406 202.496094 C 357.457031 202.496094 355.445312 204.503906 355.445312 206.992188 C 355.445312 209.507812 357.457031 211.546875 359.941406 211.546875 C 362.460938 211.546875 364.496094 209.507812 364.496094 206.992188 C 364.496094 204.503906 362.460938 202.496094 359.941406 202.496094 Z M 359.941406 202.496094 "/>
<path fill-rule="evenodd" fill="rgb(19.999695%, 19.607544%, 19.999695%)" fill-opacity="1" d="M 360 205.691406 C 360.734375 205.691406 361.359375 206.3125 361.359375 207.050781 C 361.359375 207.785156 360.734375 208.40625 360 208.40625 C 359.265625 208.40625 358.640625 207.785156 358.640625 207.050781 C 358.640625 206.3125 359.265625 205.691406 360 205.691406 Z M 360 204.757812 C 358.726562 204.757812 357.710938 205.777344 357.710938 207.050781 C 357.710938 208.320312 358.726562 209.339844 360 209.339844 C 361.273438 209.339844 362.289062 208.320312 362.289062 207.050781 C 362.289062 205.777344 361.273438 204.757812 360 204.757812 Z M 360 204.757812 "/>
<path fill-rule="evenodd" fill="rgb(19.999695%, 19.607544%, 19.999695%)" fill-opacity="1" d="M 366.703125 190.789062 L 366.25 192.597656 L 362.09375 192.597656 C 361.839844 192.597656 361.613281 192.796875 361.613281 193.082031 C 361.613281 193.335938 361.839844 193.53125 362.09375 193.53125 L 366.023438 193.53125 L 364.101562 201.082031 L 362.261719 198.707031 C 361.726562 198 360.875 197.578125 359.941406 197.578125 C 359.039062 197.578125 358.191406 198 357.652344 198.707031 L 355.816406 201.082031 L 353.890625 193.53125 L 357.824219 193.53125 C 358.078125 193.53125 358.304688 193.335938 358.304688 193.082031 C 358.304688 192.796875 358.078125 192.597656 357.824219 192.597656 L 353.664062 192.597656 L 353.214844 190.789062 Z M 352.363281 191.296875 L 355.078125 202.015625 L 353.808594 203.683594 L 351.601562 195.03125 C 351.261719 193.730469 351.574219 192.34375 352.363281 191.296875 Z M 367.578125 191.296875 C 368.371094 192.34375 368.652344 193.730469 368.3125 195.03125 L 366.109375 203.683594 L 364.835938 202.015625 Z M 353.1875 204.675781 C 352.449219 206.171875 352.507812 207.953125 353.382812 209.398438 L 351.601562 209.398438 L 351.601562 204.675781 Z M 368.339844 204.675781 L 368.339844 209.398438 L 366.558594 209.398438 C 367.410156 207.953125 367.464844 206.171875 366.730469 204.675781 Z M 350.640625 203.457031 L 350.640625 210.582031 L 348.746094 210.582031 L 348.746094 203.457031 Z M 371.167969 203.457031 L 371.167969 210.582031 L 369.277344 210.582031 L 369.277344 203.457031 Z M 359.941406 198.535156 C 360.566406 198.535156 361.132812 198.820312 361.527344 199.300781 L 365.457031 204.363281 C 366.703125 205.976562 366.558594 208.265625 365.117188 209.707031 L 362.828125 211.996094 C 362.035156 212.789062 360.988281 213.183594 359.941406 213.183594 C 358.925781 213.183594 357.878906 212.789062 357.085938 211.996094 L 354.796875 209.707031 C 353.355469 208.265625 353.214844 205.976562 354.457031 204.363281 L 358.386719 199.300781 C 358.785156 198.820312 359.347656 198.535156 359.941406 198.535156 Z M 352.589844 189.855469 C 352.476562 189.855469 352.363281 189.882812 352.28125 189.96875 C 350.808594 191.328125 350.1875 193.335938 350.695312 195.285156 L 352.84375 203.710938 L 351.601562 203.710938 L 351.601562 203.003906 C 351.601562 202.722656 351.375 202.523438 351.121094 202.523438 L 348.265625 202.523438 C 348.011719 202.523438 347.8125 202.722656 347.8125 203.003906 L 347.8125 211.0625 C 347.8125 211.347656 348.011719 211.546875 348.265625 211.546875 L 351.121094 211.546875 C 351.375 211.546875 351.601562 211.347656 351.601562 211.0625 L 351.601562 210.355469 L 354.089844 210.355469 L 356.410156 212.675781 C 357.398438 213.636719 358.671875 214.148438 359.972656 214.148438 C 361.242188 214.148438 362.515625 213.636719 363.507812 212.675781 C 363.507812 212.675781 365.796875 210.355469 365.824219 210.355469 L 368.339844 210.355469 L 368.339844 211.0625 C 368.339844 211.347656 368.539062 211.546875 368.792969 211.546875 L 371.652344 211.546875 C 371.90625 211.546875 372.101562 211.347656 372.101562 211.0625 L 372.101562 203.003906 C 372.101562 202.722656 371.90625 202.523438 371.652344 202.523438 L 368.792969 202.523438 C 368.539062 202.523438 368.3125 202.722656 368.3125 203.003906 L 368.3125 203.710938 L 367.070312 203.710938 L 369.21875 195.285156 C 369.726562 193.335938 369.105469 191.328125 367.636719 189.96875 C 367.550781 189.882812 367.4375 189.855469 367.324219 189.855469 Z M 352.589844 189.855469 "/>
<path fill-rule="evenodd" fill="rgb(19.999695%, 19.607544%, 19.999695%)" fill-opacity="1" d="M 359.972656 192.597656 C 359.6875 192.597656 359.492188 192.796875 359.492188 193.050781 C 359.492188 193.335938 359.6875 193.558594 359.972656 193.558594 C 360.226562 193.558594 360.453125 193.335938 360.453125 193.050781 C 360.453125 192.796875 360.226562 192.597656 359.972656 192.597656 Z M 359.972656 192.597656 "/>
</svg>
