<?xml version="1.0" encoding="UTF-8"?>
<svg xmlns="http://www.w3.org/2000/svg" xmlns:xlink="http://www.w3.org/1999/xlink" width="25.0" height="27.0" viewBox="347.5 189.0 25.0 27.0">
<defs>
<clipPath id="clip-0">
<path clip-rule="nonzero" d="M 0.875 0 L 719.097656 0 L 719.097656 404.003906 L 0.875 404.003906 Z M 0.875 0 "/>
</clipPath>
</defs>
<g clip-path="url(#clip-0)">
</g>
<path fill-rule="evenodd" fill="rgb(19.999695%, 19.607544%, 19.999695%)" fill-opacity="1" d="M 358.898438 201.027344 C 359.605469 201.195312 360.253906 201.535156 360.820312 202.015625 C 361.554688 202.664062 362.0625 203.515625 362.289062 204.476562 C 362.402344 204.84375 362.714844 205.097656 363.109375 205.125 C 363.335938 205.125 363.5625 205.011719 363.703125 204.871094 C 364.128906 205.578125 364.296875 206.425781 364.269531 207.277344 C 364.242188 207.246094 364.242188 207.246094 364.214844 207.246094 C 363.960938 207.246094 363.703125 207.359375 363.507812 207.585938 L 362.375 209 L 360.875 207.785156 C 360.707031 207.644531 360.507812 207.585938 360.3125 207.585938 C 360.113281 207.585938 359.914062 207.644531 359.773438 207.753906 L 357.683594 209.253906 L 355.785156 207.839844 C 355.730469 207.558594 355.703125 207.277344 355.703125 206.992188 C 355.703125 206.03125 355.898438 205.125 356.296875 204.277344 C 356.519531 204.730469 356.972656 205.011719 357.511719 205.011719 C 357.511719 205.011719 357.539062 205.011719 357.566406 205.011719 C 358.105469 205.011719 358.585938 204.675781 358.785156 204.136719 C 358.984375 203.570312 359.09375 203.003906 359.09375 202.382812 C 359.09375 201.929688 359.039062 201.480469 358.898438 201.027344 Z M 360.3125 208.519531 L 363.253906 210.953125 L 360.847656 213.183594 L 358.671875 212.988281 L 358.585938 212.476562 L 359.011719 210.980469 C 359.09375 210.613281 358.984375 210.214844 358.671875 210.019531 L 358.472656 209.875 Z M 354.710938 208.234375 L 358.078125 210.753906 L 357.371094 213.183594 L 353.890625 213.183594 L 352.25 211.234375 Z M 364.214844 208.234375 L 367.605469 210.753906 L 366.898438 213.183594 L 363.394531 213.183594 L 362.882812 212.589844 L 363.960938 211.601562 C 364.15625 211.429688 364.242188 211.175781 364.242188 210.921875 C 364.242188 210.667969 364.101562 210.414062 363.902344 210.246094 L 363.109375 209.59375 Z M 361.5 189.828125 C 361.441406 189.828125 361.414062 189.828125 361.359375 189.828125 C 361.1875 189.882812 361.046875 190.054688 361.015625 190.222656 C 360.933594 191.070312 359.574219 192.035156 358.785156 192.597656 L 358.671875 192.683594 C 356.972656 193.898438 355.929688 195.738281 355.703125 197.746094 C 354.882812 196.953125 353.921875 196.332031 352.875 195.90625 C 352.816406 195.878906 352.761719 195.851562 352.703125 195.851562 C 352.5625 195.851562 352.421875 195.90625 352.335938 196.019531 C 352.195312 196.191406 352.195312 196.417969 352.28125 196.585938 C 353.242188 198.058594 353.1875 200.007812 352.109375 201.421875 C 350.273438 203.824219 350.214844 207.160156 351.914062 209.652344 C 351.996094 209.734375 352.054688 209.820312 352.109375 209.90625 L 351.488281 210.667969 C 351.207031 211.007812 351.207031 211.488281 351.488281 211.828125 L 353.15625 213.808594 C 353.328125 214.003906 353.582031 214.148438 353.863281 214.148438 L 357.425781 214.148438 C 357.710938 214.148438 357.964844 214.003906 358.132812 213.777344 C 358.273438 213.863281 358.417969 213.921875 358.558594 213.921875 L 360.761719 214.117188 C 360.792969 214.148438 360.820312 214.148438 360.847656 214.148438 C 361.074219 214.148438 361.300781 214.0625 361.46875 213.890625 L 362.207031 213.214844 L 362.6875 213.808594 C 362.855469 214.003906 363.109375 214.148438 363.394531 214.148438 L 366.929688 214.148438 C 367.351562 214.148438 367.691406 213.863281 367.804688 213.46875 L 368.539062 210.980469 C 368.652344 210.640625 368.511719 210.246094 368.199219 210.019531 L 367.636719 209.59375 C 368.710938 208.292969 369.277344 206.652344 369.277344 204.957031 C 369.277344 203.34375 368.765625 201.789062 367.804688 200.515625 L 367.097656 199.613281 C 366.589844 198.933594 366.277344 198.140625 366.191406 197.292969 C 366.191406 197.125 366.078125 196.980469 365.910156 196.898438 C 365.855469 196.867188 365.796875 196.867188 365.738281 196.867188 C 365.628906 196.867188 365.515625 196.898438 365.429688 196.980469 C 364.664062 197.605469 364.042969 198.367188 363.589844 199.214844 C 363.507812 198.792969 363.449219 198.367188 363.421875 197.945312 C 363.394531 197.6875 363.195312 197.492188 362.941406 197.492188 C 362.941406 197.492188 362.914062 197.492188 362.914062 197.519531 C 362.660156 197.519531 362.460938 197.746094 362.460938 198 C 362.542969 198.988281 362.742188 199.921875 363.054688 200.855469 C 363.136719 201.027344 363.308594 201.167969 363.507812 201.167969 C 363.507812 201.167969 363.507812 201.167969 363.535156 201.167969 C 363.734375 201.136719 363.902344 201.027344 363.960938 200.828125 C 364.242188 199.867188 364.75 199.019531 365.429688 198.28125 C 365.597656 198.960938 365.910156 199.613281 366.335938 200.179688 L 367.039062 201.082031 C 367.859375 202.183594 368.339844 203.570312 368.339844 204.957031 C 368.339844 206.453125 367.832031 207.871094 366.871094 209.027344 L 365.175781 207.753906 C 365.371094 206.230469 364.949219 204.703125 363.929688 203.542969 C 363.816406 203.429688 363.703125 203.375 363.5625 203.375 C 363.507812 203.375 363.480469 203.375 363.421875 203.402344 C 363.253906 203.457031 363.109375 203.597656 363.082031 203.769531 C 362.769531 202.835938 362.207031 201.988281 361.441406 201.308594 C 360.539062 200.515625 359.40625 200.0625 358.21875 199.953125 L 358.191406 199.953125 C 358.019531 199.953125 357.878906 200.035156 357.792969 200.179688 C 357.683594 200.320312 357.683594 200.488281 357.765625 200.628906 C 358.019531 201.195312 358.132812 201.789062 358.132812 202.382812 C 358.132812 202.890625 358.046875 203.375 357.878906 203.824219 C 357.792969 204.050781 357.597656 204.078125 357.539062 204.078125 C 357.511719 204.078125 357.511719 204.078125 357.511719 204.078125 C 357.425781 204.078125 357.230469 204.050781 357.144531 203.855469 C 357.03125 203.570312 356.945312 203.289062 356.863281 203.003906 C 356.832031 202.835938 356.691406 202.664062 356.492188 202.636719 C 356.464844 202.636719 356.4375 202.636719 356.410156 202.636719 C 356.238281 202.636719 356.097656 202.722656 356.011719 202.835938 C 355.191406 204.078125 354.742188 205.492188 354.742188 206.992188 C 354.742188 207.078125 354.742188 207.160156 354.742188 207.277344 L 354.710938 207.277344 C 354.429688 207.277344 354.175781 207.386719 354.003906 207.585938 L 352.734375 209.140625 C 352.734375 209.140625 352.703125 209.140625 352.703125 209.113281 C 351.207031 206.933594 351.289062 204.078125 352.875 201.988281 C 353.890625 200.65625 354.175781 198.933594 353.695312 197.378906 C 354.484375 197.886719 355.191406 198.507812 355.757812 199.214844 C 355.84375 199.328125 355.984375 199.414062 356.125 199.414062 C 356.183594 199.414062 356.238281 199.386719 356.296875 199.386719 C 356.492188 199.300781 356.605469 199.101562 356.605469 198.90625 C 356.492188 196.757812 357.484375 194.71875 359.238281 193.476562 L 359.347656 193.390625 C 360.113281 192.824219 361.101562 192.117188 361.613281 191.296875 C 362.09375 192.0625 362.402344 192.910156 362.515625 193.785156 C 362.574219 194.011719 362.769531 194.183594 362.996094 194.183594 C 363.027344 194.183594 363.054688 194.183594 363.082031 194.183594 C 363.335938 194.15625 363.507812 193.898438 363.480469 193.644531 C 363.253906 192.316406 362.714844 191.042969 361.867188 189.996094 C 361.78125 189.882812 361.640625 189.828125 361.5 189.828125 Z M 361.5 189.828125 "/>
<path fill-rule="evenodd" fill="rgb(19.999695%, 19.607544%, 19.999695%)" fill-opacity="1" d="M 369.078125 189.855469 C 368.824219 189.855469 368.625 190.054688 368.625 190.308594 L 368.625 190.703125 C 368.625 190.960938 368.824219 191.183594 369.078125 191.183594 C 369.359375 191.183594 369.558594 190.960938 369.558594 190.703125 L 369.558594 190.308594 C 369.558594 190.054688 369.359375 189.855469 369.078125 189.855469 Z M 369.078125 189.855469 "/>
<path fill-rule="evenodd" fill="rgb(19.999695%, 19.607544%, 19.999695%)" fill-opacity="1" d="M 369.078125 192.882812 C 368.824219 192.882812 368.625 193.082031 368.625 193.335938 L 368.625 193.730469 C 368.625 193.984375 368.824219 194.210938 369.078125 194.210938 C 369.359375 194.210938 369.558594 193.984375 369.558594 193.730469 L 369.558594 193.335938 C 369.558594 193.082031 369.359375 192.882812 369.078125 192.882812 Z M 369.078125 192.882812 "/>
<path fill-rule="evenodd" fill="rgb(19.999695%, 19.607544%, 19.999695%)" fill-opacity="1" d="M 370.40625 191.523438 C 370.152344 191.523438 369.953125 191.722656 369.953125 191.976562 C 369.953125 192.261719 370.152344 192.457031 370.40625 192.457031 L 370.800781 192.457031 C 371.054688 192.457031 371.28125 192.261719 371.28125 191.976562 C 371.253906 191.722656 371.054688 191.523438 370.800781 191.523438 Z M 370.40625 191.523438 "/>
<path fill-rule="evenodd" fill="rgb(19.999695%, 19.607544%, 19.999695%)" fill-opacity="1" d="M 367.378906 191.523438 C 367.125 191.523438 366.929688 191.722656 366.929688 192.003906 C 366.929688 192.261719 367.125 192.457031 367.378906 192.457031 L 367.777344 192.457031 C 368.03125 192.457031 368.257812 192.261719 368.257812 192.003906 C 368.257812 191.722656 368.03125 191.523438 367.777344 191.523438 Z M 367.378906 191.523438 "/>
<path fill-rule="evenodd" fill="rgb(19.999695%, 19.607544%, 19.999695%)" fill-opacity="1" d="M 350.867188 190.703125 C 350.582031 190.703125 350.386719 190.902344 350.386719 191.15625 L 350.386719 191.554688 C 350.386719 191.808594 350.582031 192.035156 350.867188 192.035156 C 351.121094 192.035156 351.347656 191.808594 351.347656 191.554688 L 351.347656 191.15625 C 351.347656 190.902344 351.121094 190.703125 350.867188 190.703125 Z M 350.867188 190.703125 "/>
<path fill-rule="evenodd" fill="rgb(19.999695%, 19.607544%, 19.999695%)" fill-opacity="1" d="M 350.867188 193.757812 C 350.582031 193.757812 350.386719 193.957031 350.386719 194.210938 L 350.386719 194.605469 C 350.386719 194.859375 350.582031 195.085938 350.867188 195.085938 C 351.121094 195.058594 351.347656 194.859375 351.347656 194.605469 L 351.347656 194.210938 C 351.347656 193.957031 351.121094 193.757812 350.867188 193.757812 Z M 350.867188 193.757812 "/>
<path fill-rule="evenodd" fill="rgb(19.999695%, 19.607544%, 19.999695%)" fill-opacity="1" d="M 352.195312 192.371094 C 351.941406 192.371094 351.742188 192.570312 351.742188 192.855469 C 351.742188 193.109375 351.941406 193.304688 352.195312 193.304688 L 352.589844 193.304688 C 352.84375 193.304688 353.070312 193.109375 353.070312 192.855469 C 353.070312 192.570312 352.84375 192.371094 352.589844 192.371094 Z M 352.195312 192.371094 "/>
<path fill-rule="evenodd" fill="rgb(19.999695%, 19.607544%, 19.999695%)" fill-opacity="1" d="M 349.140625 192.371094 C 348.886719 192.371094 348.6875 192.570312 348.6875 192.855469 C 348.6875 193.109375 348.886719 193.304688 349.140625 193.304688 L 349.539062 193.304688 C 349.792969 193.304688 350.019531 193.109375 350.019531 192.855469 C 349.988281 192.570312 349.792969 192.371094 349.539062 192.371094 Z M 349.140625 192.371094 "/>
<path fill-rule="evenodd" fill="rgb(19.999695%, 19.607544%, 19.999695%)" fill-opacity="1" d="M 362.96875 195.371094 C 362.714844 195.371094 362.515625 195.566406 362.515625 195.851562 C 362.515625 196.105469 362.714844 196.304688 362.96875 196.304688 C 363.253906 196.304688 363.449219 196.105469 363.449219 195.851562 C 363.449219 195.566406 363.253906 195.371094 362.96875 195.371094 Z M 362.96875 195.371094 "/>
</svg>
